#!OML:ASF F:\VICON\USERDATA\INSTALL\Justin_Nancy\Justin_Nancy.ASF
:FULLY-SPECIFIED
:DEGREES
18
root 11.1499 16.0778 -14.3764 -12.3783 -29.4406 18.2719
lowerback 16.0139 -0.0218551 -5.40233
upperback 2.91152 -1.10699 -1.7033
thorax -5.80135 -0.479903 1.48061
lowerneck -12.9206 -2.10356 -13.2593
upperneck 16.9144 -1.4078 6.62868
head 7.47834 -0.928055 4.23426
rclavicle 5.56597e-014 -3.81667e-014
rhumerus -60.855 14.3756 -94.8369
rradius 123.364
rwrist -25.7602
rhand -5.70989 27.6353
rfingers 7.12502
rthumb 20.1112 -1.34376
lclavicle 5.56597e-014 -3.81667e-014
lhumerus -47.4584 -12.2309 90.3175
lradius 121.651
lwrist 37.353
lhand -0.947759 7.50648
lfingers 7.12502
lthumb 24.6823 35.9346
rfemur -28.585 -14.1523 35.4396
rtibia 30.8164
rfoot 0.977111 -8.28186
rtoes 30.7195
lfemur -19.2214 8.3855 -14.8711
ltibia 69.5819
lfoot 2.34073 -0.635846
ltoes -18.7319
19
root 11.0978 15.9675 -13.9656 -12.3008 -30.3952 17.8066
lowerback 16.5376 0.239655 -4.81968
upperback 2.63431 -0.682666 -1.37024
thorax -6.41362 -0.26141 1.42256
lowerneck -12.7895 -2.33741 -13.4554
upperneck 16.7728 -1.67969 6.49905
head 7.44128 -1.08034 4.19159
rclavicle 1.31198e-014 -1.59028e-015
rhumerus -60.2764 15.4221 -94.2526
rradius 123.957
rwrist -25.5319
rhand -5.98258 27.4201
rfingers 7.12502
rthumb 19.8491 -1.58635
lclavicle 1.31198e-014 -1.59028e-015
lhumerus -48.6228 -11.5671 91.0411
lradius 120.832
lwrist 36.8696
lhand -0.749286 7.8547
lfingers 7.12502
lthumb 24.8725 36.2566
rfemur -28.7556 -11.5838 35.3964
rtibia 34.5663
rfoot -2.52967 -8.93979
rtoes 35.2179
lfemur -20.2704 8.09577 -13.4367
ltibia 69.1802
lfoot 0.85064 1.23118
ltoes -16.1759
20
root 11.0517 15.8773 -13.5433 -12.5944 -31.3917 18.1591
lowerback 16.9052 0.488156 -4.7929
upperback 2.39195 -0.3728 -1.24896
thorax -6.89271 -0.095506 1.47021
lowerneck -12.6815 -2.41353 -13.5001
upperneck 16.6492 -1.72759 6.17123
head 7.3878 -1.13394 4.08045
rclavicle 3.95581e-014 -1.74931e-014
rhumerus -59.4046 16.7941 -93.5605
rradius 124.22
rwrist -24.9948
rhand -6.34927 27.336
rfingers 7.12502
rthumb 19.4966 -1.70653
lclavicle 3.95581e-014 -1.74931e-014
lhumerus -49.742 -10.5755 91.6658
lradius 119.851
lwrist 36.3914
lhand -1.93735 7.85338
lfingers 7.12502
lthumb 23.7335 36.4079
rfemur -29.0113 -8.86193 34.3756
rtibia 38.1135
rfoot -6.17497 -11.9189
rtoes 34.7319
lfemur -21.125 7.58795 -12.9675
ltibia 68.1046
lfoot -0.752982 3.42648
ltoes -15.2098
21
root 11.0008 15.7881 -13.1179 -12.7119 -32.5631 17.8767
lowerback 17.2141 0.686235 -4.08133
upperback 2.44201 0.0112811 -1.11672
thorax -7.03055 0.0756498 1.122
lowerneck -12.9918 -2.54804 -13.4292
upperneck 16.53 -1.85498 6.04817
head 7.41596 -1.19337 4.01188
rclavicle -8.46823e-014 6.20208e-014
rhumerus -57.6588 17.6338 -92.977
rradius 124.339
rwrist -24.7298
rhand -6.47627 27.2207
rfingers 7.12502
rthumb 19.3745 -1.83408
lclavicle -8.46823e-014 6.20208e-014
lhumerus -50.6441 -9.48852 92.1418
lradius 119.011
lwrist 36.0537
lhand -3.66516 7.35336
lfingers 7.12502
lthumb 22.0755 36.1133
rfemur -28.8618 -6.12499 33.9491
rtibia 41.4379
rfoot -8.77524 -14.4831
rtoes 30.901
lfemur -21.6771 6.9796 -11.7519
ltibia 66.6478
lfoot -2.40466 5.2032
ltoes -13.6389
22
root 10.9426 15.6989 -12.6924 -12.2682 -33.8211 16.9968
lowerback 17.188 0.903985 -2.8072
upperback 2.5891 0.5448 -1.0204
thorax -6.87302 0.299555 0.382345
lowerneck -13.5459 -2.83556 -13.0012
upperneck 16.4104 -2.24682 6.00012
head 7.50795 -1.34615 3.88164
rclavicle -2.14687e-014 2.22639e-014
rhumerus -55.3675 17.5972 -92.705
rradius 124.509
rwrist -24.3668
rhand -7.22032 27.5064
rfingers 7.12502
rthumb 18.6589 -1.61876
lclavicle -2.14687e-014 2.22639e-014
lhumerus -51.3623 -8.705 92.395
lradius 118.112
lwrist 35.5183
lhand -4.7208 6.16022
lfingers 7.12502
lthumb 21.0616 35.0364
rfemur -28.8053 -3.55334 34.1991
rtibia 44.7436
rfoot -11.0027 -16.1315
rtoes 27.5138
lfemur -22.3225 6.37669 -9.94082
ltibia 64.8479
lfoot -3.78145 6.66811
ltoes -10.6231
23
root 10.8807 15.6091 -12.2682 -11.8908 -34.8819 16.076
lowerback 17.2706 1.15608 -1.65141
upperback 2.88264 1.08982 -0.987663
thorax -6.59646 0.532736 -0.359268
lowerneck -14.5056 -3.09525 -12.0058
upperneck 16.542 -2.63736 5.70354
head 7.73952 -1.48601 3.57452
rclavicle 8.07066e-014 -3.33958e-014
rhumerus -53.1746 17.8351 -92.3615
rradius 124.594
rwrist -24.0268
rhand -9.0056 28.4447
rfingers 7.12502
rthumb 16.941 -0.836434
lclavicle 8.07066e-014 -3.33958e-014
lhumerus -51.5915 -8.27352 92.2096
lradius 117.064
lwrist 34.9953
lhand -4.87644 5.88677
lfingers 7.12502
lthumb 20.9121 34.7796
rfemur -28.5733 -1.49078 34.5344
rtibia 47.847
rfoot -13.6685 -17.4993
rtoes 26.6424
lfemur -22.8808 5.42762 -8.16816
ltibia 62.6679
lfoot -4.80364 7.75718
ltoes -11.8224
